<svg width="52" height="52" viewBox="0 0 52 52" fill="none" xmlns="http://www.w3.org/2000/svg">
<g clip-path="url(#clip0_1466_3999)">
<path d="M7.07753 44.4782C7.07753 44.4782 4.81164 19.5689 16.8574 14.2896C16.8574 14.2896 20.1685 9.49004 27.5603 10.2583C34.9521 11.0266 40.5954 16.7193 42.4869 21.8725C43.8948 25.7114 45.2884 33.8403 45.0687 43.2588C45.0427 44.3521 44.4551 45.3544 43.5204 45.9225C41.4807 47.1614 36.7565 48.75 25.9288 48.75C8.17083 48.75 7.07753 44.4782 7.07753 44.4782Z" fill="#333333"/>
<path d="M31.5301 26.3523C25.0093 25.3929 20.7687 21.1211 19.4102 19.5572C19.2256 19.344 18.8772 19.4376 18.8265 19.7132C18.5106 21.4227 17.3861 25.7712 13.8111 28.9237C13.8111 28.9237 13.2118 29.3774 12.5397 30.2692C11.553 31.5796 11.1643 33.2475 11.4438 34.8582C12.6645 41.8964 18.612 47.2381 25.7685 47.2381C32.4947 47.2381 38.1536 42.5191 39.8241 36.1075C40.6548 31.3456 37.7402 27.2649 31.5301 26.3523Z" fill="#FFCCA8"/>
<path d="M21.3815 33.7286C22.2761 33.7286 23.0013 32.8584 23.0013 31.7851C23.0013 30.7117 22.2761 29.8416 21.3815 29.8416C20.4869 29.8416 19.7617 30.7117 19.7617 31.7851C19.7617 32.8584 20.4869 33.7286 21.3815 33.7286Z" fill="black"/>
<path d="M29.9323 33.7286C30.8269 33.7286 31.5521 32.8584 31.5521 31.7851C31.5521 30.7117 30.8269 29.8416 29.9323 29.8416C29.0377 29.8416 28.3125 30.7117 28.3125 31.7851C28.3125 32.8584 29.0377 33.7286 29.9323 33.7286Z" fill="black"/>
<path d="M27.6738 40.3247C28.0365 40.3247 28.2952 40.6731 28.199 41.0241C27.8922 42.1408 26.8704 42.9598 25.6575 42.9598C24.4446 42.9598 23.4228 42.1395 23.116 41.0241C23.0198 40.6744 23.2772 40.3247 23.6412 40.3247H27.6738Z" fill="#5C2F17"/>
<path d="M11.5571 17.8829L11.4063 10.0985C11.4024 9.92168 11.6065 9.82028 11.7443 9.92948L14.3781 11.9939C14.4821 12.0758 14.6355 12.0407 14.6953 11.9224L17.7074 5.85918C17.775 5.72398 17.9596 5.70188 18.0558 5.81888L21.9467 10.5275C22.0429 10.6445 22.2275 10.6224 22.2951 10.4872L25.8363 3.36578C25.913 3.21108 26.134 3.21108 26.2107 3.36578L29.7519 10.4872C29.8195 10.6224 30.0041 10.6445 30.1003 10.5275L33.9912 5.81888C34.0874 5.70188 34.272 5.72398 34.3396 5.85918L37.3517 11.9224C37.4102 12.0407 37.5636 12.0758 37.6689 11.9939L40.3027 9.92948C40.4418 9.82028 40.6446 9.92168 40.6407 10.0985L40.4899 17.9063C40.4821 18.2989 40.2169 18.6343 39.8321 18.7175C37.0722 19.3194 25.7739 21.4085 12.2448 18.7071C11.8522 18.6291 11.5623 18.282 11.5545 17.8816L11.5571 17.8829Z" fill="#D69600"/>
<path d="M26.0258 18.1078C27.0065 18.1078 27.8016 16.9013 27.8016 15.4129C27.8016 13.9246 27.0065 12.718 26.0258 12.718C25.0451 12.718 24.25 13.9246 24.25 15.4129C24.25 16.9013 25.0451 18.1078 26.0258 18.1078Z" fill="#F3F3F3"/>
</g>
<defs>
<clipPath id="clip0_1466_3999">
<rect width="52" height="52" fill="white"/>
</clipPath>
</defs>
</svg>
