<svg width="80" height="81" viewBox="0 0 80 81" fill="none" xmlns="http://www.w3.org/2000/svg">
<g clip-path="url(#clip0_746_15268)">
<path d="M39.478 21.4691C31.06 21.4691 16.814 19.6831 16.814 12.9931C16.814 6.30309 31.06 4.51709 39.478 4.51709C47.896 4.51709 62.142 6.30309 62.142 12.9931C62.142 19.6831 47.896 21.4691 39.478 21.4691ZM39.478 8.87909C27.492 8.87909 21.416 11.8691 21.016 13.0591C21.414 14.1171 27.494 17.1071 39.478 17.1071C51.248 17.1071 57.32 14.2231 57.914 12.9931C57.324 11.7631 51.252 8.87909 39.478 8.87909Z" fill="#FFE63B"/>
<path d="M45.58 52.425C44.46 51.263 42.028 51.701 39.072 53.315C37.952 52.107 35.278 52.261 31.912 53.527C32.774 51.821 32.98 50.383 32.35 49.453C30.636 46.923 23.438 49.095 16.272 54.303C9.10599 59.513 4.68399 65.785 6.39599 68.315C7.38199 69.771 10.19 69.663 13.756 68.321C12.894 70.025 12.69 71.465 13.318 72.395C14.506 74.147 18.328 73.639 22.948 71.431C22.342 73.325 22.366 74.827 23.16 75.649C25.268 77.835 31.998 74.407 38.188 67.993C44.378 61.579 47.688 54.609 45.578 52.423L45.58 52.425Z" fill="#D0D5DA"/>
<path d="M34.4199 52.425C35.5399 51.263 37.9719 51.701 40.9279 53.315C42.0479 52.107 44.7219 52.261 48.0879 53.527C47.2259 51.821 47.0199 50.383 47.6499 49.453C49.3639 46.923 56.5619 49.095 63.7279 54.303C70.8939 59.513 75.3159 65.785 73.6039 68.315C72.6179 69.771 69.8099 69.663 66.2439 68.321C67.1059 70.025 67.3099 71.465 66.6819 72.395C65.4939 74.147 61.6719 73.639 57.0519 71.431C57.6579 73.325 57.6339 74.827 56.8399 75.649C54.7319 77.835 48.0019 74.407 41.8119 67.993C35.6219 61.579 32.3119 54.609 34.4219 52.423L34.4199 52.425Z" fill="#D0D5DA"/>
<path d="M39.4784 68.6531C53.4214 68.6531 64.7244 56.5013 64.7244 41.5111C64.7244 26.521 53.4214 14.3691 39.4784 14.3691C25.5354 14.3691 14.2324 26.521 14.2324 41.5111C14.2324 56.5013 25.5354 68.6531 39.4784 68.6531Z" fill="#FFCCA8"/>
<path d="M19.0122 53.2751C23.9706 53.2751 27.9902 49.3693 27.9902 44.5511C27.9902 39.733 23.9706 35.8271 19.0122 35.8271C14.0538 35.8271 10.0342 39.733 10.0342 44.5511C10.0342 49.3693 14.0538 53.2751 19.0122 53.2751Z" fill="#FFCCA8"/>
<path d="M59.9463 53.2751C64.9047 53.2751 68.9243 49.3693 68.9243 44.5511C68.9243 39.733 64.9047 35.8271 59.9463 35.8271C54.9878 35.8271 50.9683 39.733 50.9683 44.5511C50.9683 49.3693 54.9878 53.2751 59.9463 53.2751Z" fill="#FFCCA8"/>
<path d="M33.178 46.4873C34.4957 46.4873 35.564 45.1584 35.564 43.5193C35.564 41.8801 34.4957 40.5513 33.178 40.5513C31.8602 40.5513 30.792 41.8801 30.792 43.5193C30.792 45.1584 31.8602 46.4873 33.178 46.4873Z" fill="black"/>
<path d="M45.78 46.4873C47.0978 46.4873 48.166 45.1584 48.166 43.5193C48.166 41.8801 47.0978 40.5513 45.78 40.5513C44.4623 40.5513 43.394 41.8801 43.394 43.5193C43.394 45.1584 44.4623 46.4873 45.78 46.4873Z" fill="black"/>
<path d="M42.448 52.2476C42.984 52.2476 43.366 52.7816 43.224 53.3176C42.772 55.0196 41.266 56.2696 39.48 56.2696C37.694 56.2696 36.188 55.0196 35.736 53.3176C35.594 52.7816 35.974 52.2476 36.512 52.2476H42.448Z" fill="#5C2F17"/>
<path d="M38.6841 21.8213C38.5941 23.0313 39.7501 23.9093 40.8421 23.4693C43.3821 22.4453 46.7241 20.4573 46.6981 17.0993C46.6541 11.6853 40.1921 12.0813 38.6601 12.3793C36.5121 12.7993 34.0141 14.3213 32.8901 15.0633C32.6681 15.2093 32.7181 15.5593 32.9761 15.6233C34.6901 16.0593 38.9981 17.5833 38.6861 21.8193L38.6841 21.8213Z" fill="#333333"/>
</g>
<defs>
<clipPath id="clip0_746_15268">
<rect width="80" height="80" fill="white" transform="translate(0 0.413086)"/>
</clipPath>
</defs>
</svg>
