<svg width="80" height="81" viewBox="0 0 80 81" fill="none" xmlns="http://www.w3.org/2000/svg">
  <style>
    .main-hand {
      transform-origin: center;
      animation: clap 0.5s infinite;
    }
    .sparkle {
      animation: sparkle 1s infinite;
    }
    @keyframes clap {
      0%, 100% { transform: scale(1) rotate(0deg); }
      50% { transform: scale(0.95) rotate(-5deg); }
    }
    @keyframes sparkle {
      0%, 100% { opacity: 1; transform: translate(0, 0); }
      50% { opacity: 0.5; transform: translate(-2px, -2px); }
    }
  </style>
  
  <g clip-path="url(#clip0_763_30332)">
    <!-- 메인 손 부분 -->
    <g class="main-hand">
      <path d="M58.0274 16.6586C54.9354 16.6586 52.4294 19.1646 52.4294 22.2566L50.9454 31.0686L44.4974 24.6206L32.3574 12.4806C32.3574 12.4806 32.3554 12.4786 32.3534 12.4766C30.2094 10.3306 26.7694 10.2946 24.6714 12.3926C22.5734 14.4906 22.6114 17.9306 24.7554 20.0746L36.8994 32.2186L36.8834 32.2366L21.4034 16.7566C19.2614 14.6126 15.8234 14.5766 13.7274 16.6726C11.6314 18.7686 11.6694 22.2046 13.8114 24.3486L29.2914 39.8286L29.2674 39.8526L16.0494 26.6346C13.9214 24.5066 10.4734 24.5026 8.34738 26.6286C6.22338 28.7526 6.22538 32.2026 8.35338 34.3306L12.3934 38.3706C10.5074 37.1406 7.98938 37.3226 6.37338 38.9386C4.50938 40.8026 4.54738 43.8626 6.45938 45.7726L23.8994 63.2126C32.9874 72.3006 47.7234 72.3006 56.8114 63.2126C61.3554 58.6686 63.6274 52.7126 63.6274 46.7566V22.2566C63.6274 19.1646 61.1194 16.6586 58.0274 16.6586Z" fill="#F78700"/>
      <path d="M65.7531 18.5504C62.8551 18.5504 60.5071 20.9004 60.5071 23.7984L59.1431 31.8944L51.8711 24.6224L39.6971 12.4484L39.6951 12.4444C37.8591 10.6104 34.9171 10.5764 33.1211 12.3724C31.3251 14.1684 31.3591 17.1104 33.1931 18.9464L45.3711 31.1244L44.1811 32.3124L28.6551 16.7864C26.8111 14.9424 23.8531 14.9104 22.0491 16.7144C20.2451 18.5184 20.2771 21.4764 22.1211 23.3204L37.6471 38.8464L36.4631 40.0304L23.1691 26.7364C21.3671 24.9344 18.4491 24.9324 16.6511 26.7304C14.8531 28.5284 14.8551 31.4464 16.6571 33.2484L29.9511 46.5424L28.7251 47.7704L20.6951 39.7404C18.8691 37.9124 15.9451 37.8764 14.1651 39.6564C12.3851 41.4364 12.4211 44.3604 14.2471 46.1864L22.2791 54.2184L25.3051 57.2444L30.9091 62.8484L31.2751 63.2144C40.3631 72.3024 55.0991 72.3024 64.1871 63.2144C68.7311 58.6704 71.0031 52.7144 71.0031 46.7584V23.7984C71.0031 20.9004 68.6531 18.5504 65.7571 18.5504H65.7531Z" fill="#FFC84D"/>
    </g>
    
    <!-- 반짝이는 장식들 -->
    <g class="sparkle">
      <path d="M51.758 12.3544C53.4193 12.3544 54.766 11.0077 54.766 9.34638C54.766 7.68511 53.4193 6.33838 51.758 6.33838C50.0967 6.33838 48.75 7.68511 48.75 9.34638C48.75 11.0077 50.0967 12.3544 51.758 12.3544Z" fill="#EDCCF8"/>
      <path d="M21.5764 72.9584C23.2376 72.9584 24.5844 71.6117 24.5844 69.9504C24.5844 68.2891 23.2376 66.9424 21.5764 66.9424C19.9151 66.9424 18.5684 68.2891 18.5684 69.9504C18.5684 71.6117 19.9151 72.9584 21.5764 72.9584Z" fill="#F66570"/>
      <path d="M67.2453 3.54692L62.9864 5.69508C62.1008 6.14178 61.7449 7.22185 62.1916 8.10747L64.3398 12.3664C64.7865 13.252 65.8666 13.6078 66.7522 13.1611L71.0111 11.013C71.8967 10.5663 72.2525 9.4862 71.8058 8.60057L69.6577 4.34166C69.211 3.45604 68.1309 3.10022 67.2453 3.54692Z" fill="#B44BD7"/>
      <path d="M13.1425 64.6517L11.9368 60.8587C11.6859 60.0692 10.8424 59.6326 10.0529 59.8836L6.25993 61.0893C5.47042 61.3402 5.03385 62.1837 5.28481 62.9732L6.49049 66.7662C6.74145 67.5557 7.58491 67.9923 8.37441 67.7413L12.1674 66.5356C12.9569 66.2847 13.3935 65.4412 13.1425 64.6517Z" fill="#6376FF"/>
      <path d="M75.1721 20.3861C76.8333 20.3861 78.1801 19.0394 78.1801 17.3781C78.1801 15.7168 76.8333 14.3701 75.1721 14.3701C73.5108 14.3701 72.1641 15.7168 72.1641 17.3781C72.1641 19.0394 73.5108 20.3861 75.1721 20.3861Z" fill="#7896FF"/>
    </g>
  </g>
  
  <defs>
    <clipPath id="clip0_763_30332">
      <rect width="80" height="80" fill="white" transform="translate(0 0.436523)"/>
    </clipPath>
  </defs>
</svg>