<svg width="50" height="48" viewBox="0 0 50 48" fill="none" xmlns="http://www.w3.org/2000/svg">
<path d="M41.7978 23.2056V30.7612C41.7978 32.3212 41.1478 33.7915 40.0207 35.098C38.4945 39.0916 32.3559 42.0816 25.0018 42.0816C17.6477 42.0816 11.5078 39.0929 9.98293 35.098C8.85583 33.7902 8.20583 32.3212 8.20583 30.7612V23.2056C3.73513 25.7354 0.953125 29.2597 0.953125 33.1662C0.953125 40.8596 11.721 47.097 25.0031 47.097C38.2852 47.097 49.0531 40.8596 49.0531 33.1662C49.0531 29.261 46.2698 25.7354 41.8004 23.2056H41.7978Z" fill="#E5E8EB"/>
<path d="M25.0013 40.4915C18.4194 40.4915 12.7371 38.2932 9.98242 35.0991C11.5086 39.0927 17.6472 42.0827 25.0013 42.0827C32.3554 42.0827 38.4953 39.094 40.0202 35.0991C37.2655 38.2932 31.5832 40.4915 25.0013 40.4915Z" fill="#AFB7C0"/>
<path d="M41.7971 17.2007V30.7597C41.7971 32.3197 41.1471 33.7887 40.0161 35.1017C37.2601 38.2867 31.5791 40.4967 25.0011 40.4967C18.4231 40.4967 12.7421 38.2867 9.98608 35.1017C8.85508 33.7887 8.20508 32.3197 8.20508 30.7597V17.2007C8.20508 22.5827 15.7191 26.9377 25.0011 26.9377C34.2831 26.9377 41.7971 22.5827 41.7971 17.2007Z" fill="#D0D5DA"/>
<path d="M24.9998 26.9366C34.2766 26.9366 41.7971 22.5803 41.7971 17.2074C41.7971 13.7793 38.7291 10.7711 34.1037 9.03821C34.3455 9.47761 34.4872 9.97421 34.4872 10.4383C34.4872 11.6746 33.4849 12.6756 32.2499 12.6756C31.0149 12.6756 30.0126 11.6733 30.0126 10.4383C30.0126 9.60631 30.4715 8.68201 31.1449 8.15941C30.2895 7.96441 29.4042 7.80321 28.4864 7.69141C28.1926 8.85101 27.345 9.77921 26.2361 10.1861V15.8242C26.2361 16.5054 25.6836 17.0592 25.0011 17.0592C24.3186 17.0592 23.7661 16.5054 23.7661 15.8242V10.1861C22.6559 9.78051 21.8083 8.85101 21.5158 7.69141C20.598 7.80321 19.7127 7.96441 18.8573 8.15941C19.5307 8.68201 19.9896 9.60761 19.9896 10.4383C19.9896 11.6746 18.9873 12.6756 17.7523 12.6756C16.5173 12.6756 15.515 11.6733 15.515 10.4383C15.515 9.97421 15.6567 9.47761 15.8985 9.03821C11.2731 10.7711 8.20508 13.7793 8.20508 17.2074C8.20508 22.5803 15.7256 26.9366 25.0024 26.9366H24.9998ZM15.5124 20.824C15.5124 19.5877 16.5147 18.1239 17.7497 18.1239C18.9847 18.1239 19.987 19.589 19.987 20.824C19.987 22.059 18.9847 23.0613 17.7497 23.0613C16.5147 23.0613 15.5124 22.059 15.5124 20.824ZM27.2384 21.9368C27.2384 23.1731 26.2361 24.1741 25.0011 24.1741C23.7661 24.1741 22.7638 23.1718 22.7638 21.9368C22.7638 20.7018 23.7661 19.2354 25.0011 19.2354C26.2361 19.2354 27.2384 20.7005 27.2384 21.9368ZM34.4885 20.824C34.4885 22.0603 33.4862 23.0613 32.2512 23.0613C31.0162 23.0613 30.0139 22.059 30.0139 20.824C30.0139 19.589 31.0162 18.1239 32.2512 18.1239C33.4862 18.1239 34.4885 19.589 34.4885 20.824ZM37.2016 13.0331C38.4379 13.0331 39.4389 14.4982 39.4389 15.7332C39.4389 16.9682 38.4366 17.9705 37.2016 17.9705C35.9666 17.9705 34.9643 16.9682 34.9643 15.7332C34.9643 14.4982 35.9666 13.0331 37.2016 13.0331ZM10.562 15.7332C10.562 14.4969 11.5643 13.0331 12.7993 13.0331C14.0343 13.0331 15.0366 14.4982 15.0366 15.7332C15.0366 16.9682 14.0343 17.9705 12.7993 17.9705C11.5643 17.9705 10.562 16.9682 10.562 15.7332Z" fill="#E5E8EB"/>
<path d="M23.7656 10.1846V15.8227C23.7656 16.5039 24.3181 17.0577 25.0006 17.0577C25.6831 17.0577 26.2356 16.5039 26.2356 15.8227V10.1846C25.8482 10.3263 25.4361 10.416 25.0006 10.416C24.5651 10.416 24.1517 10.3263 23.7656 10.1846Z" fill="#64A7FF"/>
<path d="M22.7637 21.9353C22.7637 23.1716 23.766 24.1726 25.001 24.1726C26.236 24.1726 27.2383 23.1703 27.2383 21.9353C27.2383 20.7003 26.236 19.2339 25.001 19.2339C23.766 19.2339 22.7637 20.699 22.7637 21.9353Z" fill="#EF4452"/>
<path d="M32.251 18.1226C31.0147 18.1226 30.0137 19.5877 30.0137 20.8227C30.0137 22.0577 31.016 23.06 32.251 23.06C33.486 23.06 34.4883 22.0577 34.4883 20.8227C34.4883 19.5877 33.486 18.1226 32.251 18.1226Z" fill="#EF4452"/>
<path d="M30.0111 10.4382C30.0111 11.6745 31.0134 12.6755 32.2484 12.6755C33.4834 12.6755 34.4857 11.6732 34.4857 10.4382C34.4857 9.97412 34.344 9.47752 34.1022 9.03812C33.7005 8.30752 33.0193 7.73682 32.2484 7.73682C31.8441 7.73682 31.4697 7.90452 31.1421 8.15802C30.4687 8.68062 30.0098 9.60622 30.0098 10.4369L30.0111 10.4382Z" fill="#EF4452"/>
<path d="M37.2002 17.9706C38.4365 17.9706 39.4375 16.9683 39.4375 15.7333C39.4375 14.4983 38.4352 13.0332 37.2002 13.0332C35.9652 13.0332 34.9629 14.4983 34.9629 15.7333C34.9629 16.9683 35.9652 17.9706 37.2002 17.9706Z" fill="#EF4452"/>
<path d="M19.9883 20.8241C19.9883 19.5878 18.986 18.124 17.751 18.124C16.516 18.124 15.5137 19.5891 15.5137 20.8241C15.5137 22.0591 16.516 23.0614 17.751 23.0614C18.986 23.0614 19.9883 22.0591 19.9883 20.8241Z" fill="#EF4452"/>
<path d="M17.7503 12.6767C18.9866 12.6767 19.9876 11.6744 19.9876 10.4394C19.9876 9.60736 19.5287 8.68306 18.8553 8.16046C18.5277 7.90566 18.1546 7.73926 17.749 7.73926C16.9768 7.73926 16.2969 8.30996 15.8952 9.04056C15.6534 9.47996 15.5117 9.97656 15.5117 10.4407C15.5117 11.677 16.514 12.678 17.749 12.678L17.7503 12.6767Z" fill="#EF4452"/>
<path d="M12.7998 17.9706C14.0361 17.9706 15.0371 16.9683 15.0371 15.7333C15.0371 14.4983 14.0348 13.0332 12.7998 13.0332C11.5648 13.0332 10.5625 14.4983 10.5625 15.7333C10.5625 16.9683 11.5648 17.9706 12.7998 17.9706Z" fill="#EF4452"/>
<path d="M23.7651 10.1848C24.1525 10.3265 24.5646 10.4162 25.0001 10.4162C25.4356 10.4162 25.849 10.3265 26.2351 10.1848C27.3453 9.77918 28.1929 8.84968 28.4854 7.69008C28.5569 7.40668 28.6063 7.11418 28.6063 6.80868C28.6063 5.54508 27.1568 2.76568 26.096 0.89888C25.6124 0.0486805 24.3865 0.0486805 23.9029 0.89888C22.8421 2.76568 21.3926 5.54638 21.3926 6.80868C21.3926 7.11418 21.442 7.40668 21.5135 7.69008C21.8073 8.84968 22.6562 9.77788 23.7651 10.1848ZM25.0287 6.21068C25.9127 6.21068 26.629 6.92698 26.629 7.81098C26.629 8.69498 25.9127 9.41128 25.0287 9.41128C24.1447 9.41128 23.4284 8.69498 23.4284 7.81098C23.4284 6.92698 24.1447 6.21068 25.0287 6.21068Z" fill="#EF4452"/>
<path d="M25.03 9.41105C25.9138 9.41105 26.6303 8.69457 26.6303 7.81075C26.6303 6.92693 25.9138 6.21045 25.03 6.21045C24.1462 6.21045 23.4297 6.92693 23.4297 7.81075C23.4297 8.69457 24.1462 9.41105 25.03 9.41105Z" fill="#FA878F"/>
</svg>
