<svg width="52" height="52" viewBox="0 0 52 52" fill="none" xmlns="http://www.w3.org/2000/svg">
<g clip-path="url(#clip0_1185_59)">
<path d="M14.4955 37.5036C25.0892 48.0973 33.1245 50.5088 39.5257 48.9852C43.0799 48.1389 46.248 45.2438 48.3644 42.8349C49.9686 41.0071 49.6657 38.1965 47.7417 36.708L39.2787 30.1586C38.4337 29.5047 37.2338 29.5801 36.4772 30.3367L31.9831 34.8308C31.2889 35.525 30.219 35.6628 29.3831 35.1493C27.9388 34.2627 25.5156 32.5441 22.4866 29.5138C19.4576 26.4848 17.739 24.0616 16.8511 22.6173C16.3376 21.7814 16.4754 20.7115 17.1696 20.0173L21.6637 15.5232C22.419 14.7679 22.4957 13.568 21.8418 12.7217L15.2924 4.25867C13.8039 2.33467 10.992 2.03177 9.16554 3.63597C6.75664 5.75107 3.86154 8.91917 3.01524 12.4747C1.49164 18.8772 3.90314 26.9112 14.4968 37.5049L14.4955 37.5036Z" fill="#23B169"/>
</g>
<defs>
<clipPath id="clip0_1185_59">
<rect width="52" height="52" fill="white"/>
</clipPath>
</defs>
</svg>
