<svg width="52" height="52" viewBox="0 0 52 52" fill="none" xmlns="http://www.w3.org/2000/svg">
<g clip-path="url(#clip0_1466_4331)">
<path d="M26.0004 48.1728C35.2945 48.1728 42.8289 43.8087 42.8289 38.4254C42.8289 33.042 35.2945 28.678 26.0004 28.678C16.7063 28.678 9.17188 33.042 9.17188 38.4254C9.17188 43.8087 16.7063 48.1728 26.0004 48.1728Z" fill="#BABABA"/>
<path d="M25.9999 45.1359C39.2773 45.1359 50.0408 38.9012 50.0408 31.2103C50.0408 23.5194 39.2773 17.2847 25.9999 17.2847C12.7225 17.2847 1.95898 23.5194 1.95898 31.2103C1.95898 38.9012 12.7225 45.1359 25.9999 45.1359Z" fill="#D9D9D9"/>
<path d="M26.0002 42.7349C36.0181 42.7349 44.1391 38.0309 44.1391 32.2283C44.1391 26.4256 36.0181 21.7217 26.0002 21.7217C15.9824 21.7217 7.86133 26.4256 7.86133 32.2283C7.86133 38.0309 15.9824 42.7349 26.0002 42.7349Z" fill="#EC4F00"/>
<path d="M34.4578 37.8207C34.1705 37.8207 33.9092 37.6296 33.8312 37.3397C32.4974 32.3633 27.3611 29.3928 22.386 30.7318C22.0415 30.8189 21.6827 30.6187 21.5904 30.2716C21.4981 29.9245 21.7035 29.5696 22.0506 29.476C27.7173 27.9628 33.5686 31.335 35.0883 37.003C35.1806 37.3514 34.9752 37.7063 34.6281 37.7999C34.5722 37.8142 34.515 37.822 34.4591 37.822L34.4578 37.8207Z" fill="#FFAD00"/>
<path d="M32.5275 38.338C32.2402 38.338 31.9776 38.1469 31.9009 37.857C31.3939 35.9642 30.1771 34.3808 28.4767 33.398C26.775 32.4165 24.7951 32.1513 22.9036 32.6622C22.5591 32.7493 22.2003 32.5478 22.108 32.202C22.0157 31.8536 22.2211 31.4987 22.5682 31.4051C24.7951 30.8123 27.1247 31.1152 29.1267 32.2722C31.1287 33.4292 32.56 35.2921 33.1567 37.519C33.249 37.8674 33.0436 38.2223 32.6965 38.3159C32.6406 38.3302 32.5834 38.338 32.5275 38.338Z" fill="#FFAD00"/>
<path d="M30.5972 38.8556C30.3099 38.8556 30.0473 38.6645 29.9706 38.3733C29.2088 35.5276 26.276 33.8259 23.4212 34.5942C23.0741 34.6787 22.7179 34.4811 22.6256 34.134C22.5333 33.7869 22.7387 33.432 23.0858 33.3384C26.627 32.3933 30.2787 34.498 31.2264 38.0392C31.3187 38.3863 31.1133 38.7412 30.7662 38.8348C30.7103 38.8491 30.6531 38.8556 30.5972 38.8556Z" fill="#FFAD00"/>
<path d="M13.818 31.3624C13.7075 31.3624 13.5957 31.3351 13.493 31.2753C13.1823 31.0959 13.0757 30.6994 13.2551 30.3874C15.9565 25.71 21.9573 24.0993 26.636 26.802C26.9467 26.9814 27.0533 27.3779 26.8739 27.6899C26.6945 28.0019 26.2954 28.1059 25.986 27.9278C21.9287 25.5878 16.7222 26.9827 14.3809 31.0387C14.26 31.2467 14.0416 31.3637 13.8167 31.3637L13.818 31.3624Z" fill="#FFAD00"/>
<path d="M15.402 32.2776C15.2915 32.2776 15.1797 32.2503 15.077 32.1905C14.7663 32.0111 14.6597 31.6146 14.8391 31.3026C17.0374 27.4988 21.9202 26.1897 25.7227 28.3867C26.0334 28.5661 26.14 28.9626 25.9606 29.2746C25.7799 29.584 25.3821 29.6919 25.0727 29.5125C21.8903 27.6756 17.8057 28.7702 15.9662 31.9539C15.8453 32.1619 15.6269 32.2776 15.402 32.2776Z" fill="#FFAD00"/>
<path d="M17.3608 32.6247C17.2243 32.6247 17.0865 32.5818 16.9695 32.4934C16.6822 32.2763 16.6263 31.8694 16.8421 31.5821C18.7037 29.1173 22.1292 28.4244 24.8059 29.9714C25.1166 30.1508 25.2232 30.5473 25.0438 30.8593C24.8631 31.1687 24.4653 31.2753 24.1559 31.0972C22.0434 29.8791 19.3459 30.4251 17.8795 32.3686C17.7521 32.5376 17.5571 32.6247 17.3608 32.6247Z" fill="#FFAD00"/>
<path d="M39.9595 33.6245C39.7346 33.6245 39.5162 33.5075 39.3953 33.2995C38.1473 31.1376 36.1323 29.5906 33.7208 28.9445C31.3093 28.2984 28.7925 28.6312 26.6293 29.8779C26.3186 30.0573 25.9208 29.9507 25.7414 29.64C25.562 29.3293 25.6686 28.9315 25.9793 28.7521C28.4428 27.3312 31.3093 26.9516 34.0562 27.6887C36.8031 28.4245 39.0976 30.186 40.5198 32.6482C40.6992 32.9589 40.5926 33.3567 40.2819 33.5361C40.1792 33.5959 40.0674 33.6232 39.9569 33.6232L39.9595 33.6245Z" fill="#FFAD00"/>
<path d="M38.2282 34.6242C38.0033 34.6242 37.7849 34.5072 37.664 34.2992C36.6851 32.6027 35.1004 31.3898 33.2024 30.8802C31.3044 30.3719 29.3258 30.6319 27.6293 31.6108C27.3173 31.7902 26.9208 31.6849 26.7414 31.3729C26.562 31.0622 26.6686 30.6644 26.9793 30.485C28.9748 29.3306 31.3044 29.0225 33.5391 29.6244C35.7712 30.2224 37.6367 31.6524 38.7898 33.6492C38.9692 33.9599 38.8626 34.3577 38.5519 34.5371C38.4492 34.5969 38.3387 34.6242 38.2282 34.6242Z" fill="#FFAD00"/>
<path d="M36.4984 35.6238C36.2735 35.6238 36.0551 35.5068 35.9342 35.2988C34.9826 33.6478 33.2068 32.626 31.2971 32.626C31.2893 32.626 31.2828 32.6377 31.2711 32.626C30.9136 32.626 30.6224 32.3361 30.6211 31.9786C30.6211 31.6107 30.9266 31.3195 31.2971 31.326C33.6709 31.326 35.877 32.5974 37.0613 34.6488C37.2407 34.9595 37.1341 35.3573 36.8234 35.5367C36.7207 35.5965 36.6089 35.6238 36.4984 35.6238Z" fill="#FFAD00"/>
<path d="M25.6939 37.6233C25.469 37.6233 25.2506 37.5063 25.1297 37.2983C23.8817 35.1364 21.8667 33.5894 19.4552 32.9433C17.0437 32.2959 14.5256 32.63 12.3637 33.8767C12.053 34.0561 11.6552 33.9495 11.4758 33.6388C11.2964 33.3281 11.403 32.9303 11.7137 32.7509C14.1759 31.3287 17.0437 30.9504 19.7906 31.6875C22.5375 32.4233 24.832 34.1848 26.2542 36.647C26.4336 36.9577 26.327 37.3555 26.0163 37.5349C25.9136 37.5947 25.8018 37.622 25.6913 37.622L25.6939 37.6233Z" fill="#FFAD00"/>
<path d="M23.9645 38.623C23.7396 38.623 23.5212 38.506 23.4003 38.298C22.4214 36.6015 20.8367 35.3886 18.9387 34.879C17.0407 34.3694 15.0621 34.6307 13.3656 35.6096C13.0549 35.789 12.6571 35.6824 12.4777 35.3717C12.2983 35.061 12.4049 34.6632 12.7156 34.4838C14.7111 33.3281 17.0407 33.0226 19.2754 33.6232C21.5075 34.2212 23.373 35.6512 24.5261 37.648C24.7055 37.9587 24.5989 38.3565 24.2882 38.5359C24.1855 38.5957 24.075 38.623 23.9645 38.623Z" fill="#FFAD00"/>
<path d="M20.0629 37.4452C19.9524 37.4452 19.8393 37.4179 19.7366 37.3581C18.0765 36.3909 16.0186 36.3857 14.3637 37.3399C14.053 37.5206 13.6552 37.4127 13.4758 37.102C13.2964 36.7913 13.403 36.3935 13.7137 36.2141C15.7716 35.0246 18.33 35.0324 20.3905 36.2323C20.7012 36.4143 20.8065 36.8108 20.6258 37.1228C20.5049 37.3295 20.2878 37.4452 20.0629 37.4452Z" fill="#FFAD00"/>
<path d="M22.3511 38.2422C22.2406 38.432 22.3186 38.6686 22.5201 38.7531C23.0856 38.9923 24.24 39.368 25.3138 39.0118C26.3876 38.6556 27.0896 37.665 27.399 37.1346C27.5095 36.9448 27.4315 36.7082 27.23 36.6237C26.6645 36.3845 25.5101 36.0088 24.4363 36.365C23.3625 36.7212 22.6605 37.7118 22.3511 38.2422Z" fill="#036D50"/>
<path d="M40.2301 35.5211C40.3562 35.7005 40.2964 35.9423 40.1027 36.045C39.5632 36.3271 38.4582 36.7873 37.3727 36.5234C36.2872 36.2595 35.5176 35.343 35.1679 34.8438C35.0418 34.6644 35.1016 34.4226 35.2953 34.3199C35.8348 34.0378 36.9398 33.5776 38.0253 33.8415C39.1108 34.1054 39.8804 35.0219 40.2301 35.5211Z" fill="#036D50"/>
<path d="M28.8371 11.5635L48.094 7.16428C48.7141 7.01348 49.0885 6.38298 48.9234 5.76678L48.6595 4.78008C48.4944 4.16388 47.8548 3.80508 47.2425 3.98448L28.3652 9.80198L28.8371 11.5635Z" fill="#3D3D3D"/>
<path d="M25.1415 11.4192C24.3381 12.1342 23.3748 12.6464 22.3322 12.9116L18.1696 13.9711C17.8316 14.0569 17.6288 14.4027 17.7185 14.7407C17.7991 15.0423 18.0916 15.2386 18.401 15.1996L25.2923 14.3338C26.2452 14.1765 26.669 13.4472 26.9797 13.0143C27.2904 12.5814 27.6973 11.8183 28.398 11.648L28.8361 11.5635L28.3642 9.802L27.7883 9.9567C26.8432 10.2102 25.9709 10.6808 25.2416 11.3308L25.1415 11.4192Z" fill="#BABABA"/>
<path d="M23.8941 27.0464C23.5353 27.0464 23.2441 26.7552 23.2441 26.3964V12.2953C23.2441 11.9365 23.5353 11.6453 23.8941 11.6453C24.2529 11.6453 24.5441 11.9365 24.5441 12.2953V26.3964C24.5441 26.7552 24.2529 27.0464 23.8941 27.0464Z" fill="#FFAD00"/>
<path d="M22.027 26.8008C21.6682 26.8008 21.377 26.5096 21.377 26.1508V12.9103C21.377 12.5515 21.6682 12.2603 22.027 12.2603C22.3858 12.2603 22.677 12.5515 22.677 12.9103V26.1508C22.677 26.5096 22.3858 26.8008 22.027 26.8008Z" fill="#FFAD00"/>
<path d="M20.1598 26.7877C19.801 26.7877 19.5098 26.4965 19.5098 26.1377V13.464C19.5098 13.1052 19.801 12.814 20.1598 12.814C20.5186 12.814 20.8098 13.1052 20.8098 13.464V26.1377C20.8098 26.4965 20.5186 26.7877 20.1598 26.7877Z" fill="#FFAD00"/>
<path d="M31.298 29.4165C31.3318 29.2254 31.3045 29.0239 31.2005 28.8432C31.0926 28.656 30.9223 28.5286 30.7325 28.4636C30.7325 28.2699 30.6701 28.0749 30.5362 27.915C30.3971 27.7499 30.2073 27.6524 30.0097 27.6225C29.9759 27.4314 29.881 27.2507 29.7211 27.1168C29.5547 26.9777 29.3519 26.9153 29.1517 26.9205C29.0854 26.7385 28.9606 26.5773 28.7799 26.472C28.5927 26.3641 28.3821 26.3381 28.1845 26.3784C28.0883 26.2107 27.9375 26.0729 27.7412 26.0014C27.5384 25.9273 27.3252 25.939 27.1393 26.0118C27.0145 25.8636 26.8429 25.7544 26.6375 25.718C26.4243 25.6803 26.2176 25.7284 26.046 25.8324C25.8978 25.7076 25.7093 25.6309 25.5 25.6309C25.2842 25.6309 25.0879 25.7141 24.9371 25.8467C24.7694 25.7505 24.5705 25.7063 24.3651 25.7427C24.1519 25.7804 23.9738 25.8961 23.849 26.0534C23.667 25.9871 23.4629 25.9793 23.2666 26.0508C23.0638 26.1249 22.9078 26.2692 22.8116 26.446C22.6205 26.4122 22.419 26.4395 22.2383 26.5435C22.0511 26.6514 21.9237 26.8217 21.8587 27.0115C21.665 27.0115 21.47 27.0739 21.3101 27.2078C21.1437 27.3469 21.0475 27.5367 21.0176 27.7343C20.8265 27.7681 20.6458 27.863 20.5119 28.0229C20.3728 28.1893 20.3104 28.3921 20.3156 28.5923C20.1336 28.6586 19.9724 28.7834 19.8671 28.9641C19.7592 29.1513 19.7332 29.3619 19.7722 29.5595C19.6045 29.657 19.3952 29.7831 19.3952 30.0028C19.3952 30.008 19.3991 30.0158 19.4004 30.0223H19.3926C19.3926 31.9892 22.146 33.5843 25.5416 33.5843C28.9372 33.5843 31.6906 31.9892 31.6906 30.0223C31.6906 29.7272 31.4722 29.5127 31.2954 29.4165H31.298Z" fill="#CB2C29"/>
</g>
<defs>
<clipPath id="clip0_1466_4331">
<rect width="52" height="52" fill="white"/>
</clipPath>
</defs>
</svg>
