<svg width="80" height="81" viewBox="0 0 80 81" fill="none" xmlns="http://www.w3.org/2000/svg">
<g clip-path="url(#clip0_763_23525)">
<path d="M35.6839 69.9654C38.3059 71.7234 41.6939 71.7234 44.3139 69.9654C51.4719 65.1634 65.6299 54.6554 71.8479 42.9454C80.3499 26.9334 70.3659 10.9634 57.1719 10.9634C49.6559 10.9634 45.1299 14.8874 42.6279 18.2654C41.3059 20.0494 38.6959 20.0494 37.3739 18.2654C34.8699 14.8874 30.3459 10.9634 22.8299 10.9634C9.63386 10.9634 -0.350141 26.9354 8.15186 42.9474C14.3699 54.6574 28.5259 65.1654 35.6859 69.9674L35.6839 69.9654Z" fill="#EC4452"/>
<path d="M60.1439 18.8295L58.6899 8.76953L57.2359 18.8295C56.7919 21.9055 54.8599 24.3115 52.3919 24.8655L44.3179 26.6775L52.3919 28.4895C54.8599 29.0435 56.7919 31.4495 57.2359 34.5255L58.6899 44.5855L60.1439 34.5255C60.5879 31.4495 62.5199 29.0435 64.9879 28.4895L73.0619 26.6775L64.9879 24.8655C62.5199 24.3115 60.5879 21.9055 60.1439 18.8295Z" fill="#FFD800"/>
<path d="M25.4779 42.7257L24.4719 35.7637L23.4659 42.7257C23.1579 44.8537 21.8219 46.5197 20.1139 46.9037L14.5259 48.1577L20.1139 49.4117C21.8219 49.7957 23.1599 51.4597 23.4659 53.5897L24.4719 60.5517L25.4779 53.5897C25.7859 51.4617 27.1219 49.7957 28.8299 49.4117L34.4159 48.1577L28.8299 46.9037C27.1219 46.5197 25.7839 44.8557 25.4779 42.7257Z" fill="#FFD800"/>
</g>
<defs>
<clipPath id="clip0_763_23525">
<rect width="80" height="80" fill="white" transform="translate(0 0.0273438)"/>
</clipPath>
</defs>
</svg>
