<svg width="52" height="52" viewBox="0 0 52 52" fill="none" xmlns="http://www.w3.org/2000/svg">
<g clip-path="url(#clip0_1466_2152)">
<path d="M41.9631 33.0588C41.8071 33.1368 41.6511 33.1758 41.4951 33.1758C41.1311 33.1758 40.7801 32.9678 40.6111 32.6298L36.6981 25.1548L35.7621 23.3738L33.1751 18.4208H20.3441L26.9741 30.5628H24.6861L18.6801 19.5648L16.4701 23.5298L15.4821 25.2978L11.3871 32.6558C11.1921 32.9808 10.8541 33.1758 10.5031 33.1758C10.3341 33.1758 10.1651 33.1238 10.0221 33.0458C9.52809 32.7728 9.35909 32.1618 9.63209 31.6808L13.7401 24.3098L14.7151 22.5548L17.5361 17.4848L14.8971 12.6358L16.7561 11.8688L19.2391 16.4188H32.1221L30.0811 12.5188C29.9121 12.2068 29.9251 11.8298 30.1071 11.5308C30.2891 11.2318 30.6141 11.0498 30.9651 11.0498H36.1651C36.7111 11.0498 37.1661 11.4918 37.1661 12.0508C37.1661 12.6098 36.7111 13.0518 36.1651 13.0518H32.6291L37.5431 22.4378L38.4791 24.2318L42.3791 31.7068C42.6391 32.1878 42.4441 32.7988 41.9631 33.0588Z" fill="#5A81FF"/>
<path d="M19.0047 32.1657C19.0047 36.8522 15.1918 40.6651 10.5053 40.6651C5.8188 40.6651 2.0059 36.8522 2.0059 32.1657C2.0059 27.4792 5.8188 23.6676 10.5053 23.6676C11.648 23.6676 12.7387 23.8977 13.7345 24.3085L14.716 22.5483C13.4251 21.9802 12.0029 21.6604 10.5053 21.6604C4.7125 21.6617 0 26.3742 0 32.1657C0 37.9572 4.7125 42.6723 10.5053 42.6723C16.2981 42.6723 21.0106 37.9598 21.0106 32.1657C21.0106 28.5881 19.2088 25.4252 16.4671 23.5272L15.483 25.2926C17.6111 26.8383 19.0034 29.3395 19.0034 32.1657H19.0047Z" fill="#4E5968"/>
<path d="M41.4936 21.6619C40.0935 21.6619 38.7597 21.9427 37.5377 22.4419L38.475 24.232C39.4149 23.8732 40.4302 23.6678 41.4936 23.6678C46.1801 23.6678 49.993 27.4807 49.993 32.1659C49.993 36.8511 46.1801 40.6653 41.4936 40.6653C36.8071 40.6653 32.9942 36.8524 32.9942 32.1659C32.9942 29.2604 34.4632 26.6916 36.6953 25.1589L35.7619 23.374C32.8915 25.2512 30.9883 28.4882 30.9883 32.1659C30.9883 37.9587 35.7008 42.6725 41.4936 42.6725C47.2864 42.6725 51.9989 37.96 51.9989 32.1659C51.9989 26.3718 47.2864 21.6619 41.4936 21.6619Z" fill="#4E5968"/>
<path d="M19.8357 10.5793C20.4922 10.3063 20.2959 9.32739 19.5848 9.32739H12.7949C11.5092 9.32739 10.8449 10.8627 11.725 11.8L12.3776 12.4942C12.8625 13.0103 13.6165 13.1715 14.2704 12.8998L14.8931 12.6398L16.756 11.8637L19.837 10.578L19.8357 10.5793Z" fill="#4E5968"/>
<path d="M23.3337 30.5603C22.7799 30.5603 22.3301 31.0088 22.3301 31.5639C22.3301 32.119 22.7799 32.5662 23.3337 32.5662H28.665C29.2188 32.5662 29.6686 32.1177 29.6686 31.5639C29.6686 31.0101 29.2188 30.5603 28.665 30.5603H23.3337Z" fill="#4E5968"/>
</g>
<defs>
<clipPath id="clip0_1466_2152">
<rect width="52" height="52" fill="white"/>
</clipPath>
</defs>
</svg>
