<svg width="52" height="52" viewBox="0 0 52 52" fill="none" xmlns="http://www.w3.org/2000/svg">
<path d="M17.7621 8.43573C17.7621 7.57383 17.064 6.87573 16.2021 6.87573H10.187C9.32505 6.87573 8.62695 7.57383 8.62695 8.43573V9.79033H17.7621V8.43573Z" fill="#8595AA"/>
<path d="M25.9991 20.0615C21.4179 20.0615 17.6895 23.7899 17.6895 28.3724C17.6895 32.9549 21.4166 36.6807 25.9991 36.6807C30.5816 36.6807 34.3087 32.9536 34.3087 28.3724C34.3087 23.7912 30.5816 20.0615 25.9991 20.0615ZM25.9991 32.5311C23.7059 32.5311 21.8404 30.6643 21.8404 28.3711C21.8404 27.8186 21.9535 27.2947 22.1498 26.8124C21.713 26.5095 21.4075 26.0285 21.4075 25.4578C21.4075 24.5322 22.1602 23.7782 23.0858 23.7782C23.6565 23.7782 24.1375 24.0824 24.4404 24.5205C24.9227 24.3242 25.4479 24.2111 25.9991 24.2111C28.2923 24.2111 30.1591 26.0779 30.1591 28.3711C30.1591 30.6643 28.2936 32.5311 25.9991 32.5311Z" fill="#333D4B"/>
<path d="M43.8102 9.79028H8.19023C5.31853 9.79028 2.99023 12.1186 2.99023 14.9903V41.1658C2.99023 44.0258 5.33023 46.3658 8.19023 46.3658H43.8102C46.6819 46.3658 49.0102 44.0375 49.0102 41.1658V14.9903C49.0102 12.1186 46.6819 9.79028 43.8102 9.79028ZM26.0002 38.6295C20.3426 38.6295 15.7406 34.0275 15.7406 28.3712C15.7406 22.7149 20.3426 18.1103 26.0002 18.1103C31.6578 18.1103 36.2598 22.7136 36.2598 28.3712C36.2598 34.0288 31.6578 38.6295 26.0002 38.6295ZM39.0119 19.942C37.5975 19.942 36.4509 18.7954 36.4509 17.381C36.4509 15.9666 37.5975 14.82 39.0119 14.82C40.4263 14.82 41.5729 15.9666 41.5729 17.381C41.5729 18.7954 40.4263 19.942 39.0119 19.942Z" fill="#4E5968"/>
<path d="M25.9998 24.21C25.4486 24.21 24.9234 24.3231 24.4411 24.5194C24.6296 24.7911 24.7648 25.1018 24.7648 25.4567C24.7648 26.3823 24.0121 27.135 23.0865 27.135C22.7316 27.135 22.4209 26.9998 22.1492 26.8113C21.9529 27.2936 21.8398 27.8188 21.8398 28.37C21.8398 30.6632 23.7053 32.53 25.9985 32.53C28.2917 32.53 30.1585 30.6632 30.1585 28.37C30.1585 26.0768 28.2943 24.21 25.9998 24.21Z" fill="#4E5968"/>
<path d="M24.7648 25.4567C24.7648 25.1018 24.6296 24.7911 24.4411 24.5194C24.1382 24.0826 23.6572 23.7771 23.0865 23.7771C22.1609 23.7771 21.4082 24.5298 21.4082 25.4567C21.4082 26.0274 21.7137 26.5084 22.1505 26.8113C22.4222 26.9998 22.7329 27.135 23.0878 27.135C24.0134 27.135 24.7661 26.3823 24.7661 25.4567H24.7648Z" fill="white"/>
<path d="M25.9998 18.1116C20.3422 18.1116 15.7402 22.7149 15.7402 28.3725C15.7402 34.0301 20.3422 38.6308 25.9998 38.6308C31.6574 38.6308 36.2594 34.0288 36.2594 28.3725C36.2594 22.7162 31.6574 18.1116 25.9998 18.1116ZM25.9998 36.6795C21.4186 36.6795 17.6902 32.9524 17.6902 28.3712C17.6902 23.79 21.4173 20.0603 25.9998 20.0603C30.5823 20.0603 34.3094 23.7887 34.3094 28.3712C34.3094 32.9537 30.5823 36.6795 25.9998 36.6795Z" fill="#D0D6DE"/>
<path d="M39.0122 14.8186C37.5978 14.8186 36.4512 15.9652 36.4512 17.3796C36.4512 18.794 37.5978 19.9406 39.0122 19.9406C40.4266 19.9406 41.5732 18.794 41.5732 17.3796C41.5732 15.9652 40.4266 14.8186 39.0122 14.8186Z" fill="#FFE63B"/>
</svg>
