<svg width="52" height="52" viewBox="0 0 52 52" fill="none" xmlns="http://www.w3.org/2000/svg">
<g clip-path="url(#clip0_1466_3809)">
<path d="M12.0704 40.7108C7.71931 36.777 5.22461 31.1584 5.22461 25.2954C5.22461 13.8385 14.5443 4.5188 25.9999 4.5188C37.4555 4.5188 46.7752 13.8385 46.7752 25.2954C46.7752 30.6241 44.7615 35.6889 41.1046 39.559L39.6941 38.2265C43.0091 34.7165 44.8356 30.1249 44.8356 25.2941C44.8356 14.9071 36.3856 6.4584 25.9999 6.4584C15.6142 6.4584 7.16421 14.9071 7.16421 25.2941C7.16421 30.6111 9.42751 35.7045 13.3717 39.2691L12.0704 40.7108Z" fill="#3D3D3D"/>
<path d="M14.5705 47.865L14.5718 47.865C17.7768 47.862 20.3726 45.2614 20.3696 42.0564L20.3611 32.8225C20.3581 29.6175 17.7575 27.0217 14.5525 27.0247L14.5512 27.0247C11.3462 27.0277 8.75043 29.6282 8.75339 32.8333L8.76194 42.0672C8.7649 45.2722 11.3655 47.868 14.5705 47.865Z" fill="#2F81F9"/>
<path d="M16.2023 46.5343C16.2035 47.7592 17.197 48.7512 18.4215 48.7501C19.646 48.749 20.6378 47.7551 20.6366 46.5302L20.6198 28.3485C20.6187 27.1236 19.6251 26.1316 18.4006 26.1327C17.1761 26.1338 16.1844 27.1277 16.1855 28.3526L16.2023 46.5343Z" fill="#64A7FF"/>
<path d="M36.8572 27.0244H36.8559C33.6509 27.0244 31.0527 29.6226 31.0527 32.8276V42.0615C31.0527 45.2665 33.6509 47.8647 36.8559 47.8647H36.8572C40.0623 47.8647 42.6604 45.2665 42.6604 42.0615V32.8276C42.6604 29.6226 40.0623 27.0244 36.8572 27.0244Z" fill="#2F81F9"/>
<path d="M35.2253 28.3504C35.2253 27.1255 34.2327 26.1326 33.0082 26.1326C31.7837 26.1326 30.791 27.1255 30.791 28.3504V46.5322C30.791 47.757 31.7837 48.75 33.0082 48.75C34.2327 48.75 35.2253 47.757 35.2253 46.5322V28.3504Z" fill="#64A7FF"/>
<path d="M43.8113 18.8591C42.9832 18.8591 42.1863 18.3976 41.7976 17.6033C38.8258 11.5115 32.773 7.7272 26 7.7272C19.227 7.7272 13.1742 11.5102 10.2011 17.6033C9.65905 18.7122 8.31615 19.1763 7.20725 18.6316C6.09575 18.0895 5.63425 16.7505 6.17635 15.6377C9.90735 7.9963 17.5019 3.25 26 3.25C34.4981 3.25 42.0927 7.9963 45.8224 15.6377C46.3645 16.7492 45.903 18.0895 44.7915 18.6316C44.4756 18.7863 44.1402 18.8591 43.8113 18.8591Z" fill="#2F81F9"/>
</g>
<defs>
<clipPath id="clip0_1466_3809">
<rect width="52" height="52" fill="white"/>
</clipPath>
</defs>
</svg>
