<svg width="184" height="184" viewBox="0 0 184 184" fill="none" xmlns="http://www.w3.org/2000/svg">
<g clip-path="url(#clip0_763_29463)">
<path d="M16.5231 130.484L5.79585 147.766C5.01845 149.022 5.40025 150.673 6.66065 151.451L32.5035 167.491C33.244 167.951 34.2239 167.592 34.486 166.759L35.1162 164.772C36.4916 160.439 35.222 155.701 31.8686 152.633L28.1472 149.229L33.014 141.39L33.3176 140.903L16.5231 130.475V130.484Z" fill="#FF3D29"/>
<path d="M45.4479 91.7884C42.3705 90.1738 41.8231 85.9924 44.3807 83.6418L54.6157 74.2256L48.2493 60.8396C46.1793 56.4926 47.2235 51.0462 51.1795 48.3046C52.8263 47.1592 54.6525 46.6532 56.4603 46.6026C53.5393 46.4186 21.8867 45.241 9.8853 80.2194L9.7335 80.7162C6.0259 92.966 12.2727 106.021 24.1407 110.823L27.8069 112.304L46.4047 119.825L46.4921 119.862L58.3095 98.5458L45.4433 91.7884H45.4479Z" fill="#FF3D29"/>
<path d="M94.0057 166.483C92.8879 162.076 89.3137 158.718 84.8471 157.881L79.8929 156.952V147.154H60.1221V167.495C60.1221 168.972 61.3227 170.172 62.7993 170.172H93.2191C94.0931 170.172 94.7325 169.349 94.5163 168.502L94.0057 166.483Z" fill="#FF3D29"/>
<path d="M178.351 151.713L169.942 133.824L169.698 133.304L151.804 141.713L155.972 150.581L151.883 153.53C148.193 156.189 146.39 160.747 147.25 165.209L147.646 167.256C147.812 168.112 148.741 168.586 149.532 168.213L177.063 155.273C178.402 154.643 178.981 153.052 178.351 151.713Z" fill="#495B73"/>
<path d="M112.691 156.957L107.736 157.886C103.27 158.723 99.6956 162.081 98.5778 166.488L98.0672 168.507C97.851 169.354 98.4904 170.177 99.3644 170.177H129.784C131.261 170.177 132.461 168.981 132.461 167.5V147.159H112.691V156.957Z" fill="#495B73"/>
<path d="M161.248 112.93C175.72 104.807 181.53 86.9265 174.593 71.8477L170.729 63.4481C170.729 63.4481 158.861 40.0203 143.253 42.6883L143.244 42.6975C143.221 42.7251 143.207 42.7573 143.184 42.7895C145.673 42.3663 148.318 42.8953 150.512 44.5053C154.817 47.6563 155.751 53.7053 152.6 58.0109L140.406 74.6629L144.817 83.5915C146.422 86.8391 145.668 90.7537 142.972 93.1733L128.791 105.911L139.762 124.991L143.074 123.133L160.356 113.432L161.244 112.935L161.248 112.93Z" fill="#495B73"/>
<path d="M91.3557 27.0023L76.5437 33.2123C75.7157 29.6703 72.5877 27.5543 69.2297 28.4283C65.5957 29.3483 63.1117 33.3503 63.6177 37.3063C63.8477 39.0083 64.5837 40.3883 65.6417 41.4003L59.4777 46.9663C58.7417 46.7363 57.9597 46.5983 57.1777 46.5523C56.9937 46.3223 56.7637 46.0923 56.6257 45.8623C56.5337 45.7243 56.4417 45.5863 56.3497 45.4483C55.7977 44.5283 55.2917 43.6083 54.8777 42.6423C54.8317 42.5043 54.7397 42.3663 54.6477 42.1823C54.6017 42.0903 54.6017 41.9523 54.5557 41.8603C54.1417 40.8023 53.8197 39.6983 53.5897 38.5483C53.5437 38.3183 53.4977 38.0423 53.4517 37.7663C53.3137 36.8923 53.2217 35.9723 53.2217 35.0523V34.0863C53.2677 32.9823 53.3597 31.9243 53.5897 30.8203C53.6357 30.5903 53.6817 30.3603 53.7277 30.1303C53.8657 29.5783 54.0037 29.0263 54.1877 28.4743C54.2797 28.2443 54.3717 28.0143 54.4637 27.7843C54.7397 27.0943 55.0617 26.4503 55.3837 25.8063C55.6137 25.3003 55.8897 24.7943 56.1657 24.2883C56.5797 23.6443 57.0397 23.0463 57.4997 22.4483C57.8217 22.0803 58.0977 21.6663 58.4197 21.3443C59.0177 20.7003 59.6617 20.1023 60.3057 19.5503C60.6277 19.3203 60.9037 19.0443 61.2257 18.8143C61.9617 18.2623 62.6977 17.8483 63.4797 17.3883C63.8477 17.2043 64.2157 16.9743 64.5837 16.7903C64.7217 16.6983 64.9057 16.6523 65.0437 16.5603C65.2277 16.4683 65.3657 16.3763 65.5497 16.2843C65.7797 16.1923 66.0097 16.1463 66.2397 16.1003C66.4697 16.0543 66.6997 15.9623 66.9297 15.8703C67.3897 15.7323 67.8497 15.5943 68.3097 15.5023C69.0917 15.2723 69.8737 15.1343 70.6557 15.0423C71.1617 14.9963 71.6677 14.9503 72.2197 14.9043C72.9557 14.8583 73.6917 14.9043 74.4277 14.9503C75.0257 14.9963 75.5777 15.0423 76.1297 15.1343C76.8657 15.2263 77.5557 15.4103 78.2457 15.5943C78.6137 15.6863 78.9357 15.7323 79.2577 15.8243C79.4877 15.9163 79.6717 16.0543 79.9017 16.1003C80.6837 16.4223 81.4197 16.7443 82.1557 17.1123C82.6157 17.3883 83.1217 17.6183 83.5357 17.8943C84.2717 18.3543 84.9617 18.8603 85.6057 19.4123C85.9737 19.7343 86.3877 20.0103 86.7557 20.3323C87.3997 20.9763 87.9977 21.7123 88.5957 22.4483C88.8717 22.7703 89.1477 23.0923 89.3777 23.4143C89.9757 24.2423 90.4357 25.1623 90.8497 26.0823C91.0337 26.4043 91.2177 26.6803 91.3557 27.0023Z" fill="#FF8F00"/>
<path d="M147.476 31.6941C147.43 32.0161 147.384 32.3381 147.338 32.6141C147.246 33.5341 147.108 34.4541 146.878 35.3281C146.786 35.6041 146.74 35.8341 146.694 36.1101C146.326 37.2141 145.912 38.2721 145.406 39.3301C145.36 39.3761 145.36 39.4681 145.314 39.5141C145.314 39.5601 145.268 39.6061 145.268 39.6521C145.176 39.7901 145.084 39.9281 144.992 40.0661C144.486 40.9861 143.888 41.8601 143.244 42.6881C143.198 42.7341 143.198 42.7801 143.198 42.7801C142.048 42.9641 140.99 43.3781 139.978 43.9301L134.366 37.8121C135.516 36.8921 136.39 35.6041 136.758 33.9481C137.678 29.9921 135.562 25.8061 132.02 24.5181C128.754 23.3221 125.442 25.1621 124.246 28.6121L110.078 21.0221C110.216 20.7001 110.492 20.4241 110.676 20.1481C111.182 19.2741 111.734 18.4001 112.378 17.6181C112.654 17.2961 112.976 17.0201 113.252 16.7441C113.942 16.0541 114.586 15.3641 115.322 14.8121C115.69 14.4901 116.104 14.2601 116.518 13.9841C117.254 13.4781 117.944 13.0181 118.726 12.6501C119.186 12.4201 119.692 12.2361 120.198 12.0061C120.98 11.7301 121.716 11.4541 122.544 11.2241C122.774 11.1781 122.958 11.0401 123.188 10.9941C123.556 10.9021 123.878 10.9481 124.246 10.8561C124.936 10.7641 125.672 10.6261 126.362 10.5801H128.11C128.846 10.5801 129.582 10.6721 130.318 10.7641C130.87 10.8101 131.33 10.9021 131.836 11.0401C132.618 11.2241 133.4 11.4081 134.182 11.6841C134.642 11.8681 135.056 12.0521 135.47 12.2361C135.93 12.4201 136.39 12.5121 136.85 12.7881C137.172 12.9261 137.448 13.2021 137.77 13.3861C138.138 13.5701 138.46 13.8461 138.828 14.0761C139.564 14.5821 140.254 15.0881 140.898 15.6861C141.22 15.9621 141.496 16.2381 141.772 16.5141C142.37 17.1581 142.922 17.7561 143.474 18.4461C143.75 18.8601 144.026 19.2741 144.302 19.6881C144.716 20.3321 145.084 20.9761 145.452 21.6661C145.682 22.1721 145.912 22.6781 146.096 23.2301C146.372 23.9201 146.602 24.5641 146.786 25.3001C146.878 25.5301 146.97 25.7601 147.016 25.9901C147.154 26.5421 147.246 27.1401 147.292 27.6921C147.338 27.9221 147.384 28.1521 147.43 28.3821C147.522 29.4861 147.522 30.5901 147.476 31.6941Z" fill="#FF8F00"/>
<path d="M16.5229 130.484L33.3175 140.907L33.0185 141.395L46.4091 119.825L27.8067 112.3L16.5229 130.484Z" fill="#FFC74D"/>
<path d="M169.942 133.818L160.361 113.431L143.074 123.133L151.809 141.712L169.699 133.303L169.942 133.818Z" fill="#FFC74D"/>
<path d="M96.8756 86.204L80.7757 80.27C79.3036 79.764 78.1077 78.66 77.4637 77.234L66.0097 53.222C70.5637 54.924 75.7157 55.062 80.5457 53.084C90.7117 48.944 95.5877 37.352 91.4476 27.186C91.4016 27.14 91.4017 27.094 91.3557 27.002L76.5436 33.212C75.7156 29.67 72.5877 27.554 69.2297 28.428C65.5957 29.348 63.1117 33.35 63.6177 37.306C63.8477 39.008 64.5837 40.388 65.6417 41.4L59.4777 46.966C58.7417 46.736 57.9597 46.598 57.1777 46.552C56.9477 46.552 56.6717 46.598 56.4417 46.598C54.6477 46.644 52.8077 47.15 51.1977 48.3C47.2417 51.06 46.1837 56.488 48.2537 60.858L54.6017 74.2439L62.3297 90.3899C63.6637 93.242 66.0557 95.404 68.9536 96.5079L90.5737 104.466C91.6777 104.88 92.8277 105.064 93.9317 105.064C98.3937 105.064 102.58 101.936 103.454 97.06C104.328 92.368 101.338 87.86 96.8756 86.204ZM84.9617 38.64C85.5136 36.984 86.7096 35.926 87.6297 36.202C88.5496 36.524 88.8717 38.088 88.3197 39.744C87.8137 41.354 86.6176 42.412 85.6976 42.136C84.7776 41.814 84.4557 40.25 84.9617 38.64Z" fill="#FFC74D"/>
<path d="M79.8926 121.357C79.8926 114.255 75.9458 107.741 69.6484 104.457L58.314 98.541L46.4966 119.857L56.1658 123.846C58.5624 124.835 60.1218 127.167 60.1218 129.761V147.158H79.8926V121.357Z" fill="#FFC74D"/>
<path d="M121.095 110.887C115.855 114.278 112.69 120.092 112.69 126.33V147.154H132.461V135.396C132.461 131.679 134.407 128.234 137.586 126.307L139.766 124.991L128.795 105.91L121.095 110.887Z" fill="#FFC74D"/>
<path d="M150.512 44.482C148.304 42.872 145.682 42.366 143.198 42.78C142.048 42.964 140.99 43.378 139.978 43.93L134.366 37.812C135.516 36.892 136.39 35.604 136.758 33.948C137.678 29.992 135.562 25.806 132.02 24.518C128.754 23.322 125.442 25.162 124.246 28.612L110.078 21.022C110.032 21.068 109.986 21.114 109.986 21.16C104.88 30.912 108.652 42.964 118.358 48.07C123.05 50.508 128.248 50.876 132.986 49.542L133.998 50.692L118.956 71.254L98.6697 56.396C94.3457 53.268 88.3197 54.188 85.1457 58.512C82.0177 62.79 82.9377 68.862 87.2157 71.99L110.4 88.964C117.392 94.116 127.282 92.552 132.434 85.56L140.392 74.658L152.582 58.006C155.756 53.682 154.836 47.656 150.512 44.482ZM114.31 36.616C113.344 36.846 112.286 35.65 111.872 33.994C111.504 32.292 111.964 30.774 112.93 30.544C113.896 30.36 114.954 31.51 115.322 33.212C115.736 34.868 115.276 36.386 114.31 36.616Z" fill="#FFC74D"/>
<path d="M85.6843 42.1224C86.6089 42.426 87.7911 41.3542 88.3293 39.7258C88.8675 38.0974 88.5501 36.5288 87.6255 36.2252C86.7009 35.9216 85.5187 36.9934 84.9805 38.6218C84.4423 40.2502 84.7597 41.8188 85.6843 42.1224Z" fill="black"/>
<path d="M112.925 30.558C111.973 30.7742 111.513 32.306 111.895 33.985C112.277 35.664 113.358 36.8462 114.305 36.63C115.253 36.4138 115.718 34.882 115.336 33.203C114.954 31.5286 113.873 30.3372 112.925 30.558Z" fill="black"/>
</g>
<defs>
<clipPath id="clip0_763_29463">
<rect width="184" height="184" fill="white"/>
</clipPath>
</defs>
</svg>
