<svg width="184" height="184" viewBox="0 0 184 184" fill="none" xmlns="http://www.w3.org/2000/svg">
<g clip-path="url(#clip0_763_29468)">
<path d="M28.9569 156.359L26.4269 153.783C2.66329 129.559 3.60629 90.4913 28.5153 67.4453L73.7287 25.6129C97.6257 3.50533 134.771 4.40234 157.573 27.6415C180.375 50.8807 180.564 88.0349 158.001 111.509L115.313 155.917C91.7975 180.38 52.7205 180.582 28.9569 156.359Z" fill="#DE9740"/>
<path d="M77.5244 120.522C79.7897 118.257 75.3466 110.141 67.6005 102.395C59.8543 94.6485 51.7385 90.2053 49.4732 92.4706C47.208 94.7359 51.6511 102.852 59.3972 110.598C67.1433 118.344 75.2592 122.787 77.5244 120.522Z" fill="#A36C29"/>
<path d="M125.267 70.4199C127.079 68.6073 123.524 62.1138 117.327 55.9162C111.129 49.7185 104.636 46.1638 102.823 47.9763C101.01 49.7889 104.565 56.2825 110.763 62.4801C116.96 68.6777 123.454 72.2325 125.267 70.4199Z" fill="#A36C29"/>
<path d="M109.058 119.121C111.097 117.082 107.098 109.777 100.126 102.805C93.1541 95.8331 85.8494 91.8342 83.8105 93.8731C81.7715 95.9121 85.7705 103.217 92.7423 110.189C99.7142 117.161 107.019 121.159 109.058 119.121Z" fill="#A36C29"/>
</g>
<defs>
<clipPath id="clip0_763_29468">
<rect width="184" height="184" fill="white"/>
</clipPath>
</defs>
</svg>
