<svg width="184" height="184" viewBox="0 0 184 184" fill="none" xmlns="http://www.w3.org/2000/svg">
<g clip-path="url(#clip0_763_29467)">
<path d="M94.714 68.2687C94.645 75.2837 91.241 81.8571 86.1258 86.6595L81.7236 90.5971L16.5508 150.586C12.9766 153.944 12.8708 159.583 16.307 163.079L20.9208 167.693C24.4168 171.134 30.0564 171.024 33.4144 167.449L93.403 102.277L97.3406 97.8743C102.143 92.7591 108.716 89.3551 115.731 89.2861C127.549 89.1711 144.15 85.2427 155.682 73.5311C173.862 55.0713 173.862 34.0171 161.828 22.1675C149.983 10.1385 128.929 10.1385 110.464 28.3131C98.7574 39.8407 94.829 56.4467 94.7094 68.2641L94.714 68.2687Z" fill="#8A94A0"/>
</g>
<defs>
<clipPath id="clip0_763_29467">
<rect width="184" height="184" fill="white"/>
</clipPath>
</defs>
</svg>
