<svg width="184" height="184" viewBox="0 0 184 184" fill="none" xmlns="http://www.w3.org/2000/svg">
<g clip-path="url(#clip0_763_29466)">
<path d="M152.393 88.9963L141.284 78.8809C139.651 76.6867 138.589 74.0877 138.428 71.3553C137.844 61.3687 139.734 58.7973 135.755 48.4703C128.165 28.7731 111.26 14.1175 90.4912 10.3409C48.392 2.67734 11.73 34.8129 11.73 75.5091C11.73 90.2015 16.5324 103.753 24.633 114.733C29.6194 121.491 32.476 129.573 32.476 137.968V165.761C32.476 170.757 36.524 174.805 41.5196 174.805H90.0542C95.0498 174.805 99.0978 170.757 99.0978 165.761V148.893H124.568C131.169 148.893 136.813 144.141 137.936 137.637L139.472 128.736L130.971 123.115C127.898 121.086 128.561 116.399 132.075 115.299L141.625 112.305L141.694 104.604L152.251 95.8135C154.358 94.0563 154.431 90.8455 152.403 88.9963H152.393Z" fill="#333D4B"/>
<path d="M171.921 133.11C171.626 133.11 171.327 133.074 171.024 132.995L160.062 130.056C158.222 129.564 157.132 127.669 157.624 125.829C158.116 123.993 160.011 122.912 161.851 123.391L172.813 126.33C174.653 126.822 175.743 128.717 175.251 130.557C174.837 132.098 173.443 133.11 171.921 133.11Z" fill="#ABB7C7"/>
<path d="M167.21 149.173C166.626 149.173 166.033 149.026 165.485 148.709L155.655 143.037C154.004 142.085 153.442 139.973 154.395 138.326C155.347 136.675 157.458 136.109 159.105 137.066L168.935 142.738C170.587 143.69 171.148 145.801 170.196 147.448C169.556 148.557 168.402 149.173 167.21 149.173Z" fill="#ABB7C7"/>
<path d="M175.872 116.84H164.524C162.619 116.84 161.074 115.294 161.074 113.39C161.074 111.486 162.619 109.94 164.524 109.94H175.872C177.776 109.94 179.322 111.486 179.322 113.39C179.322 115.294 177.776 116.84 175.872 116.84Z" fill="#ABB7C7"/>
</g>
<defs>
<clipPath id="clip0_763_29466">
<rect width="184" height="184" fill="white"/>
</clipPath>
</defs>
</svg>
