<svg width="184" height="184" viewBox="0 0 184 184" fill="none" xmlns="http://www.w3.org/2000/svg">
<g clip-path="url(#clip0_763_29465)">
<path d="M80.7161 91.0294H113.956C115.653 91.0294 117.208 90.068 117.962 88.5408L152.927 17.9538C154.399 14.9822 152.237 11.5 148.92 11.5H115.681C113.983 11.5 112.429 12.4614 111.674 13.9886L76.7095 84.5756C75.2375 87.5472 77.3995 91.0294 80.7161 91.0294Z" fill="#1E6EF4"/>
<path d="M103.284 91.0294H70.044C68.3466 91.0294 66.7918 90.068 66.0374 88.5408L31.0728 17.9538C29.6008 14.9822 31.7628 11.5 35.0794 11.5H68.319C70.0164 11.5 71.5712 12.4614 72.3256 13.9886L107.29 84.5756C108.762 87.5472 106.6 91.0294 103.284 91.0294Z" fill="#4592FB"/>
<path d="M91.9999 172.5C125.336 172.5 152.361 145.476 152.361 112.139C152.361 78.8025 125.336 51.7778 91.9999 51.7778C58.6633 51.7778 31.6387 78.8025 31.6387 112.139C31.6387 145.476 58.6633 172.5 91.9999 172.5Z" fill="#8595AA"/>
<path d="M91.9996 160.425C118.667 160.425 140.286 138.806 140.286 112.139C140.286 85.471 118.667 63.8525 91.9996 63.8525C65.3318 63.8525 43.7134 85.471 43.7134 112.139C43.7134 138.806 65.3318 160.425 91.9996 160.425Z" fill="#ABB7C7"/>
<path d="M91.9675 83.4026C104.916 83.4026 110.929 90.7028 110.929 100.22C110.929 107.516 106.848 112.456 101.195 117.893L90.3207 128.271H111.145V137.857H74.4323V130.769L92.2527 113.096C97.9061 107.511 99.1251 104.797 99.1251 101.002C99.1251 95.7076 96.1167 93.0534 91.8939 93.0534C87.6021 93.0534 84.8053 96.347 84.8053 101.002L72.8545 100.929C73.1443 91.057 81.0839 83.3979 91.9675 83.3979V83.4026Z" fill="white"/>
</g>
<defs>
<clipPath id="clip0_763_29465">
<rect width="184" height="184" fill="white"/>
</clipPath>
</defs>
</svg>
