<svg width="184" height="184" viewBox="0 0 184 184" fill="none" xmlns="http://www.w3.org/2000/svg">
<g clip-path="url(#clip0_763_29464)">
<path d="M32.0527 151.133C32.0527 151.133 47.7433 165.752 68.1121 155.144C88.4763 144.537 74.6395 131.997 74.6395 131.997L32.0527 151.133Z" fill="#F78700"/>
<path d="M151.984 151.133C151.984 151.133 136.293 165.752 115.925 155.144C95.5604 144.537 109.397 131.997 109.397 131.997L151.984 151.133Z" fill="#F78700"/>
<path d="M158.166 116.132L149.081 100.634C139.568 84.4009 133.11 66.5667 130.028 48.0057C126.974 29.5965 111.048 16.1001 92.3908 16.1001H91.5996C72.9374 16.1001 57.0168 29.5965 53.9624 48.0057C50.8804 66.5667 44.4266 84.4055 34.9092 100.634L25.7368 116.283C24.0026 119.241 22.7698 122.526 22.5444 125.948C21.9142 135.59 25.6218 144.652 32.0434 151.128C34.072 153.175 36.7032 152.021 39.7438 149.969C42.8626 147.863 47.7064 142.126 54.0176 143.318C63.9352 145.185 68.8342 155.926 72.9006 159.882C72.9512 159.928 72.9972 159.979 73.0478 160.025C73.3376 160.305 73.6274 160.591 73.908 160.871H74.0644C78.83 165.195 85.0768 167.9 91.9906 167.9C98.9044 167.9 105.151 165.195 109.917 160.871H110.018C110.197 160.692 110.386 160.512 110.565 160.333C110.814 160.085 111.062 159.841 111.315 159.592C115.326 155.747 120.225 145.139 129.904 143.318C136.233 142.126 141.045 147.918 144.201 149.983C147.674 152.26 149.872 153.203 151.906 151.156C157.899 145.126 161.538 136.845 161.501 127.944C161.487 123.786 160.255 119.715 158.152 116.132H158.166Z" fill="#FFC84D"/>
</g>
<defs>
<clipPath id="clip0_763_29464">
<rect width="184" height="184" fill="white"/>
</clipPath>
</defs>
</svg>
