<svg width="52" height="52" viewBox="0 0 52 52" fill="none" xmlns="http://www.w3.org/2000/svg">
<g clip-path="url(#clip0_1466_2485)">
<path d="M25.9998 47.1938C36.8512 47.1938 45.648 38.0647 45.648 26.8033C45.648 15.542 36.8512 6.41284 25.9998 6.41284C15.1484 6.41284 6.35156 15.542 6.35156 26.8033C6.35156 38.0647 15.1484 47.1938 25.9998 47.1938Z" fill="#FFCCA8"/>
<path d="M10.0715 35.6408C13.9306 35.6408 17.059 32.7068 17.059 29.0875C17.059 25.4682 13.9306 22.5342 10.0715 22.5342C6.21239 22.5342 3.08398 25.4682 3.08398 29.0875C3.08398 32.7068 6.21239 35.6408 10.0715 35.6408Z" fill="#FFCCA8"/>
<path d="M41.9289 35.6408C45.788 35.6408 48.9164 32.7068 48.9164 29.0875C48.9164 25.4682 45.788 22.5342 41.9289 22.5342C38.0698 22.5342 34.9414 25.4682 34.9414 29.0875C34.9414 32.7068 38.0698 35.6408 41.9289 35.6408Z" fill="#FFCCA8"/>
<path d="M21.096 30.5409C22.122 30.5409 22.9537 29.5427 22.9537 28.3114C22.9537 27.0801 22.122 26.0819 21.096 26.0819C20.07 26.0819 19.2383 27.0801 19.2383 28.3114C19.2383 29.5427 20.07 30.5409 21.096 30.5409Z" fill="black"/>
<path d="M30.9026 30.5409C31.9286 30.5409 32.7603 29.5427 32.7603 28.3114C32.7603 27.0801 31.9286 26.0819 30.9026 26.0819C29.8766 26.0819 29.0449 27.0801 29.0449 28.3114C29.0449 29.5427 29.8766 30.5409 30.9026 30.5409Z" fill="black"/>
<path d="M28.3111 34.8685C28.7284 34.8685 29.0248 35.2689 28.9143 35.6719C28.562 36.9511 27.3907 37.8897 26.001 37.8897C24.6113 37.8897 23.4387 36.9498 23.0877 35.6719C22.9772 35.2689 23.2736 34.8685 23.6909 34.8685H28.3111Z" fill="#5C2F17"/>
<path d="M25.3818 12.012C25.3129 12.9207 26.2112 13.5811 27.0601 13.2509C29.0374 12.4813 31.6387 10.9889 31.6166 8.46559C31.5815 4.39919 26.5531 4.69559 25.361 4.92049C23.6892 5.23639 21.7457 6.37909 20.8708 6.93679C20.6979 7.04729 20.7382 7.30859 20.9371 7.35799C22.2709 7.68559 25.6236 8.82959 25.3805 12.0133L25.3818 12.012Z" fill="#333333"/>
</g>
<defs>
<clipPath id="clip0_1466_2485">
<rect width="52" height="52" fill="white"/>
</clipPath>
</defs>
</svg>
