<svg width="52" height="52" viewBox="0 0 52 52" fill="none" xmlns="http://www.w3.org/2000/svg">
<g clip-path="url(#clip0_1466_2449)">
<path d="M16.0503 5.68757C16.0503 5.68757 15.9008 2.74307 18.571 2.25817C20.6601 1.87857 22.3436 2.38037 23.6813 1.26107C23.8737 1.09987 24.161 1.24027 24.1259 1.48727C23.9686 2.55977 23.4265 4.43177 21.5584 4.77757C18.9103 5.26897 16.8628 5.29757 16.4741 5.77597L16.0503 5.68757Z" fill="#2E3D51"/>
<path d="M16.0528 13.5526C18.2814 13.5526 20.088 11.746 20.088 9.51738C20.088 7.2888 18.2814 5.48218 16.0528 5.48218C13.8242 5.48218 12.0176 7.2888 12.0176 9.51738C12.0176 11.746 13.8242 13.5526 16.0528 13.5526Z" fill="#8B8BF4"/>
<path d="M14.1285 9.73315H11.4336C10.5938 9.73315 10.0894 10.664 10.547 11.3673L11.9978 13.563C12.8675 14.8799 12.3774 16.6622 10.9552 17.3473L7.62723 18.9515C5.44323 20.0045 3.98593 21.9714 3.50623 24.1814C2.99663 26.5305 3.46853 30.1861 6.58203 31.594L7.97303 32.2141L8.50213 33.9236C9.83333 40.902 16.7805 45.3051 23.6601 43.5332C23.6601 43.5332 29.059 42.2982 32.9538 35.0442C32.9538 35.0442 34.8414 30.7659 38.6933 31.8501C41.9069 32.7549 41.1386 36.7264 38.5035 38.4281C36.7108 39.5851 33.3165 41.3245 34.3409 44.9086C34.3409 44.9086 34.2798 42.6492 39.2055 41.0684C44.1793 39.472 45.5053 36.6549 44.5823 32.7042C43.3668 27.4951 37.7898 26.9634 34.6321 28.5858C31.4744 30.2069 29.0486 35.0949 26.4876 34.6685C23.9266 34.2421 23.7095 31.5953 23.7095 31.5953L25.9637 30.1107C30.034 27.4288 29.8598 22.0026 25.627 19.5872L24.2893 18.9528L20.9613 17.3486C19.5391 16.6635 19.049 14.8812 19.9187 13.5643L21.3695 11.3686C21.8271 10.6653 21.3214 9.73445 20.4829 9.73445H19.8992H17.788L14.1285 9.73315Z" fill="#8B8BF4"/>
<path d="M42.3733 49.764C44.2989 49.764 45.8599 48.6186 45.8599 47.2056C45.8599 45.7926 44.2989 44.6472 42.3733 44.6472C40.4477 44.6472 38.8867 45.7926 38.8867 47.2056C38.8867 48.6186 40.4477 49.764 42.3733 49.764Z" fill="#FFAD00"/>
<path d="M40.4768 49.3858C38.5527 48.7228 36.6964 47.6477 34.9062 46.1826L35.2195 45.0178C38.1575 45.751 40.508 46.063 41.7586 45.5911L40.4768 49.3858Z" fill="#FFAD00"/>
<path d="M46.8669 44.837C45.8724 44.837 45.0625 45.6456 45.0625 46.6414C45.0625 47.6372 45.8711 48.4458 46.8669 48.4458C47.8627 48.4458 48.6713 47.6372 48.6713 46.6414C48.6713 45.6456 47.8627 44.837 46.8669 44.837ZM46.8669 47.6073C46.3339 47.6073 45.8997 47.1744 45.8997 46.6401C45.8997 46.1058 46.3326 45.6729 46.8669 45.6729C47.4012 45.6729 47.8341 46.1071 47.8341 46.6401C47.8341 47.1731 47.4012 47.6073 46.8669 47.6073Z" fill="#FFAD00"/>
<path d="M45.2511 45.7861C45.2511 44.9463 43.9524 43.9193 42.3521 43.9193C40.7518 43.9193 39.4531 44.9463 39.4531 45.7861C39.4531 46.2294 45.2524 46.2294 45.2524 45.7861H45.2511Z" fill="#F77F00"/>
<path d="M42.3522 44.3431C42.7981 44.3431 43.1595 43.9817 43.1595 43.5358C43.1595 43.09 42.7981 42.7285 42.3522 42.7285C41.9064 42.7285 41.5449 43.09 41.5449 43.5358C41.5449 43.9817 41.9064 44.3431 42.3522 44.3431Z" fill="#F77F00"/>
<path d="M26.0909 34.5501C23.9277 33.9209 23.7093 31.5952 23.7093 31.5952C17.5941 34.2446 11.0655 34.0847 8.49023 33.8884L8.50193 33.9248C8.88413 35.9242 9.73823 37.7026 10.9082 39.195C14.1894 38.9753 22.7057 38.0653 26.0909 34.5501Z" fill="#FFB72D"/>
<path d="M14.8964 10.3897C15.1584 10.3897 15.3709 10.1028 15.3709 9.74881C15.3709 9.39485 15.1584 9.10791 14.8964 9.10791C14.6343 9.10791 14.4219 9.39485 14.4219 9.74881C14.4219 10.1028 14.6343 10.3897 14.8964 10.3897Z" fill="#17202C"/>
<path d="M17.0097 10.3897C17.2717 10.3897 17.4842 10.1028 17.4842 9.74881C17.4842 9.39485 17.2717 9.10791 17.0097 9.10791C16.7476 9.10791 16.5352 9.39485 16.5352 9.74881C16.5352 10.1028 16.7476 10.3897 17.0097 10.3897Z" fill="#17202C"/>
<path d="M17.029 11.1281C16.5246 10.9916 16.2074 11.2568 16.0969 11.3725C16.0735 11.3972 16.0332 11.3972 16.0085 11.3725C15.898 11.2555 15.5808 10.9916 15.0764 11.1281C14.6734 11.2373 13.7777 11.9705 12.6441 11.275C12.5921 11.2438 12.5297 11.2958 12.5544 11.3504C12.7858 11.8756 13.6568 13.3017 16.0306 12.3969C16.0449 12.3917 16.0605 12.3917 16.0735 12.3969C18.446 13.3017 19.3183 11.8756 19.5497 11.3504C19.5744 11.2958 19.512 11.2425 19.46 11.275C18.3264 11.9705 17.4307 11.2373 17.0277 11.1281H17.029Z" fill="#17202C"/>
<path d="M44.6862 50.3946C43.1405 50.9601 41.522 50.9328 39.8398 50.3946L40.6562 49.1908H43.8542L44.6862 50.3946Z" fill="#FFAD00"/>
<path d="M8.81836 23.6145L14.333 25.7452C15.3704 26.1456 16.5274 26.0949 17.5258 25.6061L22.3943 23.218L8.81966 23.6158L8.81836 23.6145Z" fill="#786DE7"/>
</g>
<defs>
<clipPath id="clip0_1466_2449">
<rect width="52" height="52" fill="white"/>
</clipPath>
</defs>
</svg>
