<svg width="18" height="16" viewBox="0 0 18 16" fill="none" xmlns="http://www.w3.org/2000/svg">
<path d="M18.0001 7.99993C18.0001 8.19884 17.9211 8.38961 17.7804 8.53026C17.6398 8.67091 17.449 8.74993 17.2501 8.74993H2.56041L8.03073 14.2193C8.10041 14.289 8.15569 14.3717 8.1934 14.4628C8.23111 14.5538 8.25052 14.6514 8.25052 14.7499C8.25052 14.8485 8.23111 14.9461 8.1934 15.0371C8.15569 15.1281 8.10041 15.2109 8.03073 15.2806C7.96104 15.3502 7.87832 15.4055 7.78727 15.4432C7.69623 15.4809 7.59865 15.5003 7.5001 15.5003C7.40156 15.5003 7.30397 15.4809 7.21293 15.4432C7.12188 15.4055 7.03916 15.3502 6.96948 15.2806L0.219477 8.53055C0.149744 8.4609 0.0944251 8.37818 0.0566819 8.28713C0.0189387 8.19609 -0.000488281 8.09849 -0.000488281 7.99993C-0.000488281 7.90137 0.0189387 7.80377 0.0566819 7.71272C0.0944251 7.62168 0.149744 7.53896 0.219477 7.4693L6.96948 0.719304C7.11021 0.578573 7.30108 0.499512 7.5001 0.499512C7.69912 0.499512 7.89 0.578573 8.03073 0.719304C8.17146 0.860034 8.25052 1.05091 8.25052 1.24993C8.25052 1.44895 8.17146 1.63982 8.03073 1.78055L2.56041 7.24993H17.2501C17.449 7.24993 17.6398 7.32895 17.7804 7.4696C17.9211 7.61025 18.0001 7.80102 18.0001 7.99993Z" fill="#272727"/>
</svg>
