<svg width="52" height="52" viewBox="0 0 52 52" fill="none" xmlns="http://www.w3.org/2000/svg">
<g clip-path="url(#clip0_763_32232)">
<path d="M26 3.25C13.442 3.25 3.25 13.442 3.25 26C3.25 38.558 13.442 48.75 26 48.75C38.558 48.75 48.75 38.558 48.75 26C48.75 13.442 38.558 3.25 26 3.25ZM26 8.45C29.692 8.45 33.124 9.607 35.945 11.557L11.557 35.945C9.607 33.124 8.45 29.692 8.45 26C8.45 16.328 16.328 8.45 26 8.45ZM26 43.55C21.892 43.55 18.109 42.12 15.119 39.741L39.741 15.119C42.12 18.109 43.55 21.892 43.55 26C43.55 35.672 35.672 43.55 26 43.55Z" fill="#EF4452"/>
</g>
<defs>
<clipPath id="clip0_763_32232">
<rect width="52" height="52" fill="white"/>
</clipPath>
</defs>
</svg>
